# xmcd CD database file
#
# Track frame offsets:
#	150
#	17259
#	28781
#	48028
#	65305
#	85432
#	103629
#	120601
#	135601
#	155903
#	168025
#	187484
#	206294
#	225843
#	247345
#	265370
#	286654
#
# Disc length: 4071 seconds
#
# Revision: 2
# Processed by: cddbd v1.5.1PL2 Copyright (c) Steve Scherf et al.
# Submitted via: CDex 1.51
#
DISCID=e40fe511
DTITLE=Various Artist - ASPHALT#02
DYEAR=2003
DGENRE=Hip-Hop
TTITLE0=CRAIG DAVID feat. KNOW ?UESTION/RENDEZVOUS BLACKSMITH R&B RERUB
TTITLE1=SUIKEN/APOLO
TTITLE2=michico/bounce baby
TTITLE3=MACKA-CHIN/Maririn Cafe 日本語版
TTITLE4=JOHN FORTE feat. TRICKY/TROUBLE AGAIN
TTITLE5=ラッパ我リヤ feat. Rhymester/プロフェッショナル現場アクター(MIGHTY CROWN TRITOP REMIX)
TTITLE6=SOULHEAD/TOO LATE
TTITLE7=T.O.K. feat. SHABBA RANKS/GIMMI DA MUZIK
TTITLE8=MIS-TEEQ feat. ASHER D AND HARVEY(COURTESY OF SO SOLID CREW)/THEY'LL NEVER KNOW
TTITLE9=餓鬼レンジャー/ラップ王子さん
TTITLE10=NAUGHTY BY NATURE feat. ROTTIN RAZKALS/RAH RAH
TTITLE11=MICADELIC feat. アルファ/52年度通信カーリング部同窓会
TTITLE12=tasha guest vocal - DOUBLE/DOUBLE TROUBLE
TTITLE13=YING YANG TWINS feat. MR. BALL/BY MYSELF
TTITLE14=WU-TANG PRODUCTIONS PRESENTS KILLA BEEZ feat. BOBBY DIGITAL, U-GOD, INSPECTAH DECK, SUGA BANG BANG/KILLA BEEZ
TTITLE15=m-flo feat. Dev Large, NIPPS and Vincent Galluo/Dispatch
TTITLE16=BOUNTY KILLER feat. RICHIE STEPHENS and WAYNE MARSHALL/PARTY 2 THE END OF TIME
EXTD=YEAR: 2003
EXTT0=
EXTT1=
EXTT2=
EXTT3=
EXTT4=
EXTT5=
EXTT6=
EXTT7=
EXTT8=
EXTT9=
EXTT10=
EXTT11=
EXTT12=
EXTT13=
EXTT14=
EXTT15=
EXTT16=
PLAYORDER=
